<?xml version="1.0" standalone="no"?><!DOCTYPE svg PUBLIC "-//W3C//DTD SVG 1.1//EN" "http://www.w3.org/Graphics/SVG/1.1/DTD/svg11.dtd"><svg t="1746113035426" class="icon" viewBox="0 0 1024 1024" version="1.1" xmlns="http://www.w3.org/2000/svg" p-id="6083" xmlns:xlink="http://www.w3.org/1999/xlink" width="200" height="200"><path d="M512 129.70666667c-211.17155555 0-382.29333333 171.12177778-382.29333333 382.29333333s171.12177778 382.29333333 382.29333333 382.29333333 382.29333333-171.12177778 382.29333333-382.29333333-171.12177778-382.29333333-382.29333333-382.29333333z m93.32811852 579.0226963c-28.03484445 20.6317037-66.99235555 30.94755555-116.87253334 30.94755555-17.47626667 0-37.74388148-2.42725925-61.04557036-7.28177777s-40.17114075-10.8013037-50.72971852-18.0830815v-64.80782222c13.47128889 11.77220741 31.43300741 21.48124445 54.00651852 29.00574815s43.93339259 11.40811852 64.32237036 11.40811852c61.77374815 0 92.7213037-21.9666963 92.72130371-66.02145185 0-12.37902222-3.2768-23.42305185-9.95176297-33.25345185s-15.77718518-18.56853333-27.30666667-26.2144-33.25345185-19.17534815-65.1719111-34.95253333c-44.17611852-21.9666963-73.30322963-42.47703703-87.38133333-61.2882963s-20.99579259-40.41386667-20.9957926-64.68645926c0-36.53025185 14.68491852-65.65736297 44.05475556-87.01724444s66.5069037-32.16118518 111.16847407-32.16118519c43.81202963 0 75.97321482 5.33997037 96.48355556 15.89854815v62.01647407c-26.57848889-18.32580741-60.07466667-27.54939259-100.73125926-27.54939259-26.94257778 0-48.90927408 5.70405925-65.9000889 16.86945186s-25.48622222 26.94257778-25.48622222 47.08882962c0 17.84035555 5.82542222 32.28254815 17.59762964 43.56930371s37.25842963 26.45712592 76.45866666 45.75383703c43.20521482 20.6317037 73.54595555 41.38477037 90.7794963 62.01647408s25.85031111 43.93339259 25.85031112 69.66234074c0.24272592 38.71478518-13.83537778 68.32734815-41.87022223 89.08041482z" fill="#515151" p-id="6084"></path><path d="M530.81125925 487.97013333c-39.20023703-19.29671111-64.68645925-34.58844445-76.45866666-45.75383703S436.75496297 416.48734815 436.75496297 398.64699259c0-20.14625185 8.49540741-35.80207408 25.48622221-47.08882962s38.95751111-16.86945185 65.9000889-16.86945186c40.53522963 0 74.15277037 9.22358518 100.73125925 27.54939259v-62.01647407c-20.51034075-10.67994075-52.67152592-15.89854815-96.48355555-15.89854815-44.78293333 0-81.79863703 10.67994075-111.16847408 32.16118519s-44.05475555 50.48699259-44.05475555 87.01724444c0 24.27259259 7.03905185 45.8752 20.9957926 64.68645926s43.08385185 39.3216 87.38133333 61.2882963c31.7970963 15.77718518 53.64242963 27.42802963 65.1719111 34.95253333s20.6317037 16.26263703 27.30666667 26.2144 9.95176297 20.99579259 9.95176297 33.25345185c0 43.93339259-30.94755555 66.02145185-92.72130371 66.02145185-20.26761482 0-41.74885925-3.76225185-64.32237036-11.40811852s-40.53522963-17.23354075-54.00651853-29.00574815v64.80782222c10.67994075 7.16041482 27.54939259 13.22856297 50.72971853 18.0830815s43.5693037 7.28177778 61.04557036 7.28177777c49.88017778 0 88.83768889-10.31585185 116.87253334-30.94755555s42.11294815-50.36562963 42.11294814-89.08041482c0-25.72894815-8.61677037-49.03063703-25.85031111-69.66234074s-47.81700741-41.38477037-91.02222223-62.01647408z" fill="#ffffff" p-id="6085"></path></svg>